# xmcd
#
# Track frame offsets: 
#        150
#        18035
#        47880
#
# Disc length: 890 seconds
#
# Revision: 0
# Processed by: cddbd v1.5.2PL0 Copyright (c) Steve Scherf et al.
# Submitted via: ExactAudioCopyFreeDBPlugin 1.0
#
DISCID=19037803
DTITLE=伝美 - demo 2014 winter
DYEAR=2014
DGENRE=Blues
TTITLE0=Music is not politics
TTITLE1=Newcomer
TTITLE2=Heartaching,heartbreaking
EXTD=
EXTT0=
EXTT1=
EXTT2=
PLAYORDER=
